#!OML:ASF I:\golf\golf\golf 2\Subject 1\2002-09-07\Subject1.ASF
:FULLY-SPECIFIED
:DEGREES
236
root -6.47146 17.9241 1.08476 -4.04401 71.5549 -23.5269
lowerback 4.56623 -9.96354 -7.66901
upperback 4.47548 -13.4733 2.83636
thorax 4.65585 -7.08847 6.92646
lowerneck -10.1563 14.7414 4.16876
upperneck 17.9132 23.1125 -15.1883
head 9.69988 9.82354 -2.81022
rclavicle 4.53229e-014 2.06736e-014
rhumerus 17.367 -15.3158 -81.9673
rradius 85.6711
rwrist -27.6829
rhand -61.4231 18.2805
rfingers 7.12502
rthumb -33.5056 -8.61165
lclavicle 4.53229e-014 2.06736e-014
lhumerus 77.2942 -53.7383 67.4502
lradius 21.7028
lwrist -9.49494
lhand -8.15365 12.5722
lfingers 7.12502
lthumb -162.239 -138.219
rfemur -36.5536 3.60969 18.9174
rtibia 29.2801
rfoot -6.42837 -2.26112
rtoes -7.59481
lfemur -26.4359 18.7886 -6.50452
ltibia 29.6736
lfoot -10.1296 11.9163
ltoes -17.5398
237
root -6.47853 17.9451 0.990748 -5.71123 73.8529 -25.1658
lowerback 4.29395 -9.99681 -7.24608
upperback 4.66901 -13.4982 3.32273
thorax 5.04421 -7.11933 7.13331
lowerneck -10.2443 14.0742 4.3147
upperneck 18.3304 22.3156 -15.458
head 9.83234 9.41952 -3.03689
rclavicle -1.00187e-013 2.8625e-014
rhumerus 16.2817 -14.7721 -82.3286
rradius 84.6504
rwrist -29.088
rhand -61.5357 18.9402
rfingers 7.12502
rthumb -33.6126 -7.92874
lclavicle -1.00187e-013 2.8625e-014
lhumerus 74.0342 -53.8626 70.4342
lradius 20.9373
lwrist -10.3869
lhand -7.71597 13.5498
lfingers 7.12502
lthumb -161.818 -137.28
rfemur -36.3431 2.97941 18.1745
rtibia 29.4058
rfoot -6.18256 -4.09511
rtoes -10.9551
lfemur -27.3548 18.2521 -7.45711
ltibia 29.3821
lfoot -9.78256 11.0294
ltoes -20.4352
238
root -6.48353 17.9797 0.895898 -8.15944 76.1891 -27.5361
lowerback 4.0114 -10.0067 -6.69121
upperback 4.84885 -13.492 3.79802
thorax 5.38344 -7.12348 7.26645
lowerneck -10.4068 13.359 4.50985
upperneck 18.8636 21.4572 -15.6851
head 10.0089 8.9843 -3.26584
rclavicle -1.47101e-013 1.43125e-014
rhumerus 15.1302 -14.1316 -82.3732
rradius 83.3959
rwrist -30.4862
rhand -61.9971 18.7252
rfingers 7.12502
rthumb -34.0509 -8.0473
lclavicle -1.47101e-013 1.43125e-014
lhumerus 71.113 -54.0187 72.8173
lradius 20.2861
lwrist -10.7505
lhand -7.5661 14.6123
lfingers 7.12502
lthumb -161.674 -136.231
rfemur -35.9772 2.38916 17.3887
rtibia 29.5811
rfoot -6.10917 -5.85705
rtoes -11.956
lfemur -28.2656 18.3926 -8.71838
ltibia 29.0649
lfoot -8.96474 9.60843
ltoes -28.562
239
root -6.48847 17.9598 0.7981 -11.7257 78.6188 -30.9574
lowerback 3.67779 -10.0385 -6.03033
upperback 5.06305 -13.5137 4.24724
thorax 5.7618 -7.13315 7.30465
lowerneck -10.8252 12.6224 4.49867
upperneck 19.5537 20.5722 -15.6709
head 10.2299 8.52196 -3.37833
rclavicle 1.19271e-014 -2.06736e-014
rhumerus 13.9559 -13.3273 -82.3493
rradius 81.9843
rwrist -31.6318
rhand -62.4317 18.12
rfingers 7.12502
rthumb -34.4636 -8.55961
lclavicle 1.19271e-014 -2.06736e-014
lhumerus 68.2146 -54.128 74.9487
lradius 19.689
lwrist -11.0273
lhand -7.73128 15.4493
lfingers 7.12502
lthumb -161.833 -135.379
rfemur -35.5475 1.54524 16.5992
rtibia 29.7796
rfoot -6.03035 -7.44086
rtoes -11.8038
lfemur -28.6971 15.8473 -8.65737
ltibia 28.7512
lfoot -9.61874 8.62132
ltoes -22.5747
240
root -6.49258 17.9639 0.702302 -16.6383 81.1625 -35.6773
lowerback 3.3273 -10.0813 -5.3277
upperback 5.18967 -13.5517 4.58019
thorax 6.01667 -7.13388 7.20733
lowerneck -11.185 11.7965 4.49143
upperneck 20.3721 19.5424 -15.5019
head 10.4509 8.00754 -3.47213
rclavicle 9.78021e-014 -1.90833e-014
rhumerus 12.4326 -12.5811 -82.5421
rradius 80.6596
rwrist -32.6691
rhand -62.5028 16.2025
rfingers 7.12502
rthumb -34.5312 -10.4618
lclavicle 9.78021e-014 -1.90833e-014
lhumerus 64.6227 -54.2212 77.5617
lradius 19.0992
lwrist -11.4554
lhand -7.74686 16.2994
lfingers 7.12502
lthumb -161.848 -134.528
rfemur -35.0317 0.765555 15.597
rtibia 30.1144
rfoot -5.94488 -9.16928
rtoes -11.4006
lfemur -29.1597 14.5347 -9.36789
ltibia 28.2279
lfoot -9.46777 7.00915
ltoes -23.4094
241
root -6.49587 17.9947 0.608391 -27.2555 83.6005 -46.0832
lowerback 2.90717 -10.0451 -4.21667
upperback 5.23111 -13.4788 4.78691
thorax 6.06242 -7.04137 6.77828
lowerneck -11.1717 10.8365 4.92454
upperneck 21.1491 18.2425 -15.4081
head 10.6051 7.42591 -3.72878
rclavicle -7.79236e-014 1.98785e-014
rhumerus 10.4676 -12.5609 -83.2454
rradius 79.378
rwrist -34.0503
rhand -62.0497 14.5976
rfingers 7.12502
rthumb -34.1009 -12.1637
lclavicle -7.79236e-014 1.98785e-014
lhumerus 60.9845 -54.7078 79.7755
lradius 18.4948
lwrist -11.6153
lhand -7.85637 17.2888
lfingers 7.12502
lthumb -161.953 -133.528
rfemur -34.4561 0.0932669 14.7598
rtibia 30.6685
rfoot -5.86561 -10.9464
rtoes -11.822
lfemur -29.5369 14.3124 -10.4256
ltibia 27.3617
lfoot -9.02346 4.81796
ltoes -29.8218
242
root -6.49702 17.9885 0.519168 -49.665 85.4035 -68.2465
lowerback 2.2837 -9.98189 -2.82245
upperback 5.32896 -13.3776 4.92635
thorax 6.19588 -6.91467 6.09612
lowerneck -11.0562 9.87915 5.47697
upperneck 21.7896 16.8815 -15.3059
head 10.6848 6.84529 -4.01789
rclavicle -3.69739e-014 -3.10104e-014
rhumerus 8.40424 -12.266 -83.9372
rradius 78.0093
rwrist -36.1246
rhand -61.1492 14.8058
rfingers 7.12502
rthumb -33.2452 -12.1424
lclavicle -3.69739e-014 -3.10104e-014
lhumerus 57.7529 -55.2847 81.0863
lradius 17.9529
lwrist -11.6516
lhand -7.74146 18.4677
lfingers 7.12502
lthumb -161.842 -132.36
rfemur -33.8612 -0.443229 14.1051
rtibia 31.3406
rfoot -5.79052 -12.5601
rtoes -12.3896
lfemur -29.5216 12.0772 -10.057
ltibia 26.4224
lfoot -9.0107 2.89231
ltoes -22.1341
243
root -6.49281 17.9821 0.437759 -85.5668 86.0664 -103.798
lowerback 1.57888 -10.0134 -1.50125
upperback 5.49546 -13.4224 4.94459
thorax 6.46166 -6.85696 5.29653
lowerneck -11.056 9.02583 5.84361
upperneck 22.4027 15.6299 -14.999
head 10.747 6.31675 -4.18024
rclavicle -1.86858e-014 -3.49861e-014
rhumerus 6.41976 -11.3285 -84.8656
rradius 76.4989
rwrist -38.2165
rhand -61.319 14.863
rfingers 7.12502
rthumb -33.4066 -12.0505
lclavicle -1.86858e-014 -3.49861e-014
lhumerus 54.1975 -55.3984 82.3059
lradius 17.6265
lwrist -11.8376
lhand -7.06575 19.6958
lfingers 7.12502
lthumb -161.192 -131.193
rfemur -33.0419 -0.713791 13.2592
rtibia 31.9205
rfoot -5.77305 -14.2632
rtoes -12.2341
lfemur -29.4963 10.8938 -10.317
ltibia 25.5681
lfoot -8.73304 0.749797
ltoes -21.6802
244
root -6.48753 17.9628 0.359454 -119.929 85.0238 -137.775
lowerback 0.934233 -9.97205 -1.02791
upperback 5.60402 -13.4063 5.65734
thorax 7.02008 -6.8409 5.66248
lowerneck -11.1781 7.99821 5.34888
upperneck 22.9122 14.3652 -14.9434
head 10.7541 5.69645 -4.28285
rclavicle 8.07066e-014 -2.0276e-014
rhumerus 5.10186 -10.8424 -85.5262
rradius 74.6782
rwrist -39.5672
rhand -60.7513 11.5161
rfingers 7.12502
rthumb -32.8668 -15.5121
lclavicle 8.07066e-014 -2.0276e-014
lhumerus 49.7569 -54.5899 85.7289
lradius 17.1853
lwrist -12.8163
lhand -6.57017 21.5243
lfingers 7.12502
lthumb -160.716 -129.412
rfemur -32.1504 -1.00855 12.4004
rtibia 32.5883
rfoot -5.96582 -15.9186
rtoes -10.7754
lfemur -29.4104 10.1515 -10.8866
ltibia 24.5141
lfoot -8.46115 -1.3357
ltoes -27.1805
245
root -6.48286 17.9944 0.284246 -138.022 82.8826 -155.536
lowerback 0.159498 -9.81221 -0.32211
upperback 5.56713 -13.2438 6.3594
thorax 7.41963 -6.73097 5.91195
lowerneck -11.1457 6.81886 4.80005
upperneck 23.4841 12.9102 -14.8574
head 10.7309 4.99649 -4.39414
rclavicle 4.35338e-014 -1.05356e-014
rhumerus 3.58988 -10.6959 -86.1463
rradius 72.7376
rwrist -40.9568
rhand -60.5488 15.1077
rfingers 7.12502
rthumb -32.6741 -11.9607
lclavicle 4.35338e-014 -1.05356e-014
lhumerus 44.2085 -53.364 90.4644
lradius 16.6542
lwrist -14.753
lhand -6.29858 23.1359
lfingers 7.12502
lthumb -160.455 -127.827
rfemur -31.1293 -1.23926 11.6893
rtibia 33.0822
rfoot -6.24944 -17.4917
rtoes -8.30612
lfemur -29.3486 9.19156 -11.2279
ltibia 23.7033
lfoot -8.23644 -3.97638
ltoes -23.7453
246
root -6.47706 18.022 0.212733 -147.47 80.5119 -164.598
lowerback -0.524689 -9.63347 0.243069
upperback 5.41859 -13.0536 7.06261
thorax 7.67895 -6.61328 6.27192
lowerneck -11.0206 5.64717 4.26983
upperneck 24.1142 11.5025 -14.8443
head 10.7333 4.31647 -4.52345
rclavicle 8.66701e-014 1.19271e-015
rhumerus 1.78572 -10.0409 -86.4994
rradius 70.6484
rwrist -42.2805
rhand -59.6019 13.483
rfingers 7.12502
rthumb -31.7728 -13.7682
lclavicle 8.66701e-014 1.19271e-015
lhumerus 39.5856 -52.3164 93.7281
lradius 16.3813
lwrist -15.9413
lhand -5.54684 24.916
lfingers 7.12502
lthumb -159.732 -126.121
rfemur -30.0028 -1.25674 10.9319
rtibia 33.5165
rfoot -6.6877 -19.0337
rtoes -5.27739
lfemur -29.2322 8.58207 -11.7917
ltibia 22.9409
lfoot -8.01476 -6.44231
ltoes -22.1301
